<svg width="24" height="24" viewBox="0 0 24 24" fill="none" xmlns="http://www.w3.org/2000/svg">
<path fill-rule="evenodd" clip-rule="evenodd" d="M12 2.75C11.3096 2.75 10.75 3.30964 10.75 4C10.75 4.69036 11.3096 5.25 12 5.25C12.6904 5.25 13.25 4.69036 13.25 4C13.25 3.30964 12.6904 2.75 12 2.75ZM9.25 4C9.25 2.48122 10.4812 1.25 12 1.25C13.5188 1.25 14.75 2.48122 14.75 4C14.75 5.51878 13.5188 6.75 12 6.75C10.4812 6.75 9.25 5.51878 9.25 4ZM12 10.75C11.3096 10.75 10.75 11.3096 10.75 12C10.75 12.6904 11.3096 13.25 12 13.25C12.6904 13.25 13.25 12.6904 13.25 12C13.25 11.3096 12.6904 10.75 12 10.75ZM9.25 12C9.25 10.4812 10.4812 9.25 12 9.25C13.5188 9.25 14.75 10.4812 14.75 12C14.75 13.5188 13.5188 14.75 12 14.75C10.4812 14.75 9.25 13.5188 9.25 12ZM12 18.75C11.3096 18.75 10.75 19.3096 10.75 20C10.75 20.6904 11.3096 21.25 12 21.25C12.6904 21.25 13.25 20.6904 13.25 20C13.25 19.3096 12.6904 18.75 12 18.75ZM9.25 20C9.25 18.4812 10.4812 17.25 12 17.25C13.5188 17.25 14.75 18.4812 14.75 20C14.75 21.5188 13.5188 22.75 12 22.75C10.4812 22.75 9.25 21.5188 9.25 20Z" fill="#808080"/>
</svg>
